HIERARCHY
ROOT Hips
{
	OFFSET 0.000000 0.000000 0.000000
	CHANNELS 6 Xposition Yposition Zposition Xrotation Yrotation Zrotation
	JOINT LeftUpLeg_virtual
	{
		OFFSET 0.000000 0.000000 0.000000
		CHANNELS 3 Xrotation Yrotation Zrotation
		JOINT LeftUpLeg
		{
			OFFSET 11.394100 -6.187798 -0.413800
			CHANNELS 3 Xrotation Yrotation Zrotation
			JOINT LeftLeg
			{
				OFFSET 0.430247 -32.302673 3.732800
				CHANNELS 3 Xrotation Yrotation Zrotation
				JOINT LeftFoot
				{
					OFFSET -0.430247 -48.264931 -6.423300
					CHANNELS 3 Xrotation Yrotation Zrotation
					JOINT LeftToeBase
					{
						OFFSET 4.230900 -16.068199 23.438400
						CHANNELS 3 Xrotation Yrotation Zrotation
						JOINT LeftToe_End
						{
							OFFSET 4.510700 0.695400 19.974600
							CHANNELS 3 Xrotation Yrotation Zrotation
							End Site
							{
								OFFSET 0 0 0
							}
						}
					}
				}
			}
		}
	}
	JOINT RightUpLeg_virtual
	{
		OFFSET 0.000000 0.000000 0.000000
		CHANNELS 3 Xrotation Yrotation Zrotation
		JOINT RightUpLeg
		{
			OFFSET -11.333700 -6.187798 -0.413800
			CHANNELS 3 Xrotation Yrotation Zrotation
			JOINT RightLeg
			{
				OFFSET -0.430392 -32.302628 3.733000
				CHANNELS 3 Xrotation Yrotation Zrotation
				JOINT RightFoot
				{
					OFFSET 0.430392 -48.264973 -6.423500
					CHANNELS 3 Xrotation Yrotation Zrotation
					JOINT RightToeBase
					{
						OFFSET -4.230900 -16.068199 23.438400
						CHANNELS 3 Xrotation Yrotation Zrotation
						JOINT RightToe_End
						{
							OFFSET -4.510700 0.695400 19.974600
							CHANNELS 3 Xrotation Yrotation Zrotation
							End Site
							{
								OFFSET 0 0 0
							}
						}
					}
				}
			}
		}
	}
	JOINT Spine_virtual
	{
		OFFSET 0.000000 0.000000 0.000000
		CHANNELS 3 Xrotation Yrotation Zrotation
		JOINT Spine
		{
			OFFSET -0.002400 12.777504 0.315300
			CHANNELS 3 Xrotation Yrotation Zrotation
			JOINT Spine1
			{
				OFFSET -0.002067 5.816869 0.032633
				CHANNELS 3 Xrotation Yrotation Zrotation
				JOINT Spine1_split
				{
					OFFSET -0.002067 5.816869 0.032633
					CHANNELS 3 Xrotation Yrotation Zrotation
					JOINT Spine2
					{
						OFFSET -0.002067 5.816869 0.032633
						CHANNELS 3 Xrotation Yrotation Zrotation
						JOINT Neck_virtual
						{
							OFFSET 0.000000 0.000000 0.000000
							CHANNELS 3 Xrotation Yrotation Zrotation
							JOINT Neck
							{
								OFFSET -0.003700 21.199493 -0.826900
								CHANNELS 3 Xrotation Yrotation Zrotation
								JOINT Head
								{
									OFFSET 0.000000 20.442200 4.834800
									CHANNELS 3 Xrotation Yrotation Zrotation
									JOINT HeadTop_End
									{
										OFFSET 0.000000 34.668396 4.968400
										CHANNELS 3 Xrotation Yrotation Zrotation
										End Site
										{
											OFFSET 0 0 0
										}
									}
								}
							}
						}
						JOINT LeftShoulder_virtual
						{
							OFFSET 0.000000 0.000000 0.000000
							CHANNELS 3 Xrotation Yrotation Zrotation
							JOINT LeftShoulder
							{
								OFFSET 3.288150 8.794197 -1.372250
								CHANNELS 3 Xrotation Yrotation Zrotation
								JOINT LeftShoulder_split
								{
									OFFSET 3.288150 8.794197 -1.372250
									CHANNELS 3 Xrotation Yrotation Zrotation
									JOINT LeftArm
									{
										OFFSET 11.953299 -2.279007 -0.146200
										CHANNELS 3 Xrotation Yrotation Zrotation
										JOINT LeftForeArm
										{
											OFFSET 18.448900 0.000000 0.000000
											CHANNELS 3 Xrotation Yrotation Zrotation
											JOINT LeftHand
											{
												OFFSET 29.527798 0.000000 0.000000
												CHANNELS 3 Xrotation Yrotation Zrotation
												End Site
												{
													OFFSET 0 0 0
												}
											}
										}
									}
								}
							}
						}
						JOINT RightShoulder_virtual
						{
							OFFSET 0.000000 0.000000 0.000000
							CHANNELS 3 Xrotation Yrotation Zrotation
							JOINT RightShoulder
							{
								OFFSET -3.249400 8.794197 -1.372250
								CHANNELS 3 Xrotation Yrotation Zrotation
								JOINT RightShoulder_split
								{
									OFFSET -3.249400 8.794197 -1.372250
									CHANNELS 3 Xrotation Yrotation Zrotation
									JOINT RightArm
									{
										OFFSET -11.953299 -2.279007 -0.146200
										CHANNELS 3 Xrotation Yrotation Zrotation
										JOINT RightForeArm
										{
											OFFSET -18.448900 0.000000 0.000000
											CHANNELS 3 Xrotation Yrotation Zrotation
											JOINT RightHand
											{
												OFFSET -29.527802 0.000000 0.000000
												CHANNELS 3 Xrotation Yrotation Zrotation
												End Site
												{
													OFFSET 0 0 0
												}
											}
										}
									}
								}
							}
						}
					}
				}
			}
		}
	}
}
MOTION
Frames: 5
Frame Time: 0.03333333
0.819981 52.137909 -2.319016 0.000000 0.000000 0.000000 0.754685 -24.804331 9.322226 -86.093551 -16.027037 47.297708 73.526392 8.464750 -5.536330 33.426235 -2.349598 -10.089063 -0.000647 0.000006 -0.000003 0.000000 0.000000 0.000000 0.754685 -24.804331 9.322226 -37.191756 -1.049896 -16.695883 110.848841 -1.355198 -2.089372 44.195398 5.288336 13.199882 54.603783 -3.863694 -8.126488 0.000000 0.000000 0.000000 0.754685 -24.804331 9.322226 2.869223 -0.737965 -5.951919 2.227983 -1.286566 -3.027762 0.000000 0.000000 0.000000 0.000000 0.000000 0.000000 2.233814 -1.285669 -3.025124 -3.962410 3.288533 2.946570 -0.115029 19.920371 2.691781 0.000000 0.000000 0.000000 2.233814 -1.285669 -3.025124 0.452719 1.693818 1.739610 0.000000 0.000000 0.000000 -1.798688 -11.700853 -58.798660 -0.000329 -83.306752 -0.000302 0.000000 0.000000 0.000000 2.233814 -1.285669 -3.025124 5.136814 17.382616 7.477152 0.000000 0.000000 0.000000 14.034099 22.826736 31.042271 -179.999978 58.256043 179.999978 0.000000 0.000000 0.000000 
0.799944 52.162941 -2.308735 0.000000 0.000000 0.000000 0.814545 -24.734743 9.332849 -86.087254 -16.107029 47.236270 73.514542 8.508135 -5.627710 33.439104 -2.336223 -10.021160 -0.000662 -0.000002 -0.000005 0.000000 0.000000 0.000000 0.814545 -24.734743 9.332849 -37.424345 -1.099170 -16.705593 111.041684 -1.687146 -2.075467 44.018069 5.172319 12.880023 54.614199 -3.998799 -8.337626 0.000000 0.000000 0.000000 0.814545 -24.734743 9.332849 2.867975 -0.759653 -5.961661 2.223865 -1.290203 -3.038300 0.000000 0.000000 0.000000 0.000000 0.000000 0.000000 2.230373 -1.288404 -3.035256 -3.886560 3.294391 2.964091 -0.011394 19.978530 2.670443 0.000000 0.000000 0.000000 2.230373 -1.288404 -3.035256 0.506469 1.585641 1.768911 0.000000 0.000000 0.000000 -1.905208 -11.648052 -58.840598 0.000131 -83.445937 0.000148 0.000000 0.000000 0.000000 2.230373 -1.288404 -3.035256 5.163600 17.463964 7.466052 0.000000 0.000000 0.000000 14.080607 22.520696 31.066829 179.999991 58.113367 -179.999991 0.000000 0.000000 0.000000 
0.775800 52.186226 -2.314148 0.000000 0.000000 0.000000 0.859647 -24.696675 9.349589 -86.025263 -16.178251 47.191269 73.482215 8.570453 -5.715524 33.456148 -2.336452 -10.002208 -0.000653 -0.000003 -0.000000 0.000000 0.000000 0.000000 0.859647 -24.696675 9.349589 -37.595376 -1.152634 -16.704752 111.180426 -1.995732 -2.080089 43.893265 5.093027 12.642626 54.584263 -4.093586 -8.533672 0.000000 0.000000 0.000000 0.859647 -24.696675 9.349589 2.881762 -0.782103 -5.974956 2.230089 -1.293047 -3.049933 0.000000 0.000000 0.000000 0.000000 0.000000 0.000000 2.235820 -1.290964 -3.046375 -3.822534 3.316912 2.955110 -0.029435 20.063553 2.665990 0.000000 0.000000 0.000000 2.235820 -1.290964 -3.046375 0.530833 1.548092 1.698933 0.000000 0.000000 0.000000 -2.011588 -11.548416 -58.783395 0.000598 -83.644115 0.000624 0.000000 0.000000 0.000000 2.235820 -1.290964 -3.046375 5.178687 17.514116 7.436940 0.000000 0.000000 0.000000 14.117858 22.346441 31.052137 -179.999978 58.006905 179.999964 0.000000 0.000000 0.000000 
0.744268 52.207352 -2.334873 0.000000 0.000000 0.000000 0.896073 -24.697225 9.384950 -85.903296 -16.223714 47.178213 73.422416 8.642944 -5.801112 33.474422 -2.353373 -10.044418 -0.000664 -0.000004 -0.000008 0.000000 0.000000 0.000000 0.896073 -24.697225 9.384950 -37.712302 -1.179710 -16.692615 111.259274 -2.211875 -2.090718 43.830898 5.053532 12.512487 54.559374 -4.132141 -8.654228 0.000000 0.000000 0.000000 0.896073 -24.697225 9.384950 2.898904 -0.803658 -5.996964 2.242118 -1.294390 -3.067452 0.000000 0.000000 0.000000 0.000000 0.000000 0.000000 2.247330 -1.293196 -3.063675 -3.763392 3.344343 2.940334 -0.125245 20.158065 2.697602 0.000000 0.000000 0.000000 2.247330 -1.293196 -3.063675 0.533401 1.559035 1.582766 0.000000 0.000000 0.000000 -2.109733 -11.376567 -58.705838 -0.000188 -83.880221 -0.000144 0.000000 0.000000 0.000000 2.247330 -1.293196 -3.063675 5.188729 17.547033 7.437168 0.000000 0.000000 0.000000 14.085624 22.272086 30.964297 -179.999978 58.006925 179.999964 0.000000 0.000000 0.000000 
0.706292 52.224655 -2.362583 0.000000 0.000000 0.000000 0.922855 -24.711237 9.427021 -85.747909 -16.252626 47.192564 73.346369 8.707714 -5.893911 33.492936 -2.379349 -10.122836 -0.000646 0.000018 -0.000002 0.000000 0.000000 0.000000 0.922855 -24.711237 9.427021 -37.782674 -1.182521 -16.669526 111.288363 -2.294110 -2.094640 43.806211 5.046463 12.490686 54.588504 -4.122994 -8.663893 0.000000 0.000000 0.000000 0.922855 -24.711237 9.427021 2.913127 -0.816261 -6.025519 2.254016 -1.294917 -3.087605 0.000000 0.000000 0.000000 0.000000 0.000000 0.000000 2.258681 -1.295225 -3.083955 -3.715549 3.362797 2.953030 -0.217474 20.257257 2.713153 0.000000 0.000000 0.000000 2.258681 -1.295225 -3.083955 0.533447 1.569944 1.508527 0.000000 0.000000 0.000000 -2.186860 -11.180688 -58.684425 0.000116 -84.079239 0.000139 0.000000 0.000000 0.000000 2.258681 -1.295225 -3.083955 5.196406 17.586096 7.510237 0.000000 0.000000 0.000000 14.008885 22.211278 30.786866 -179.999991 58.074319 179.999978 0.000000 0.000000 0.000000 
